<svg width="90" height="82" viewBox="0 0 90 82" fill="none" xmlns="http://www.w3.org/2000/svg">
<path d="M3.00035 -6.10352e-05C1.34345 -6.10352e-05 0.000350952 1.34309 0.000350952 2.99994C0.000350952 4.65679 1.34345 5.99994 3.00035 5.99994H12.9692C17.9344 18.2974 22.8251 30.6174 27.7504 42.9374L23.2192 53.8437C22.8396 54.753 22.9464 55.8494 23.4943 56.6683C24.0423 57.4872 25.0151 58.0041 26.0004 58H76.0004C77.5853 58.022 79.0431 56.5851 79.0431 55C79.0431 53.4149 77.5853 51.9776 76.0004 52H30.5004L33.0942 45.8124L81.2504 41.9687C82.5109 41.8697 83.6519 40.8878 83.9379 39.6562L89.9379 13.6562C90.3303 11.905 88.795 9.99409 87.0004 9.99994H21.0316L17.7816 1.87494C17.3366 0.775119 16.1868 -3.10352e-05 15.0004 -6.10352e-05H3.00035ZM23.4379 15.9999H83.2192L78.5629 36.1874L32.9692 39.8124L23.4379 15.9999ZM36.0004 62C30.5131 62 26.0004 66.5126 26.0004 72C26.0004 77.4873 30.5131 82 36.0004 82C41.4877 82 46.0004 77.4873 46.0004 72C46.0004 66.5127 41.4877 62 36.0004 62ZM66.0004 62C60.5131 62 56.0004 66.5127 56.0004 72C56.0004 77.4873 60.5131 82 66.0004 82C71.4877 82 76.0004 77.4873 76.0004 72C76.0004 66.5126 71.4877 62 66.0004 62ZM36.0004 68C38.2451 68 40.0004 69.7553 40.0004 72C40.0004 74.2447 38.2451 76 36.0004 76C33.7559 76 32.0004 74.2446 32.0004 72C32.0004 69.7554 33.7559 68 36.0004 68ZM66.0004 68C68.2449 68 70.0004 69.7554 70.0004 72C70.0004 74.2446 68.2449 76 66.0004 76C63.7557 76 62.0004 74.2447 62.0004 72C62.0004 69.7553 63.7557 68 66.0004 68Z" fill="#BB2136"/>
</svg>
